<?xml version="1.0" encoding="UTF-8"?>
<svg width="50px" height="50px" viewBox="0 0 50 50" version="1.1" xmlns="http://www.w3.org/2000/svg" xmlns:xlink="http://www.w3.org/1999/xlink">
    <!-- Generator: Sketch 41.2 (35397) - http://www.bohemiancoding.com/sketch -->
    <title>applemusic-stroke</title>
    <desc>Created with Sketch.</desc>
    <defs></defs>
    <g id="Page-1" stroke="none" stroke-width="1" fill="none" fill-rule="evenodd">
        <g id="Desktop-HD" transform="translate(-781.000000, -692.000000)">
            <g id="applemusic-stroke" transform="translate(782.000000, 693.000000)">
                <path d="M0,24 C0,10.7451653 10.7451653,0 24,0 C37.2548347,0 48,10.7451653 48,24 C48,37.2548347 37.2548347,48 24,48 C10.7451653,48 0,37.2548347 0,24 Z" id="Facebook-path" stroke="#FFFFFF" stroke-width="2"></path>
                <path d="M17.9429032,15.5547091 L17.9295658,20.1469748 L17.9459458,30.2308563 C17.331008,29.8659697 16.5772123,29.6490939 15.7674037,29.6490939 C13.681356,29.6490939 12,31.0782333 12,32.832627 C12,34.5870207 13.681356,36 15.7674037,36 C17.8534514,36 19.6255385,34.5854848 19.5511874,32.832627 L19.5130285,31.9329896 L19.4281476,20.7928376 C19.4237297,20.2130135 19.8832052,19.6196671 20.4649409,19.4647583 L29.4810064,17.0638959 C30.0580295,16.9102421 30.5257991,17.2569956 30.5257991,17.8331676 L30.5257991,27.9199668 C29.8772925,27.4790426 29.0495723,27.2089239 28.1506968,27.2089239 C26.0646491,27.2089239 24.3832931,28.6380633 24.3832931,30.3924569 C24.3832931,32.1468506 26.0646491,33.55983 28.1506968,33.55983 C30.2367445,33.55983 31.9902087,32.1468506 31.9902087,30.3924569 C31.9902087,30.3760642 32,16.3978653 32,16.3978653 L32,11.8055996 C32,11.2270275 31.5323965,10.8827417 30.9551436,11.0367317 L18.9908022,14.228382 C18.413744,14.3823201 17.9445774,14.9782627 17.9429032,15.5547091 Z" id="path3036-path" fill="#FFFFFF"></path>
            </g>
        </g>
    </g>
</svg>