<?xml version="1.0" encoding="UTF-8"?>
<svg width="48px" height="48px" viewBox="0 0 48 48" version="1.1" xmlns="http://www.w3.org/2000/svg" xmlns:xlink="http://www.w3.org/1999/xlink">
    <!-- Generator: Sketch 41.2 (35397) - http://www.bohemiancoding.com/sketch -->
    <title>applemusic</title>
    <desc>Created with Sketch.</desc>
    <defs></defs>
    <g id="Page-1" stroke="none" stroke-width="1" fill="none" fill-rule="evenodd">
        <g id="Desktop-HD" transform="translate(-782.000000, -624.000000)" fill="#FFFFFF">
            <path d="M782,648 C782,634.745165 792.745165,624 806,624 C819.254835,624 830,634.745165 830,648 C830,661.254835 819.254835,672 806,672 C792.745165,672 782,661.254835 782,648 Z M799.942903,639.554709 L799.929566,644.146975 L799.945946,654.230856 C799.331008,653.86597 798.577212,653.649094 797.767404,653.649094 C795.681356,653.649094 794,655.078233 794,656.832627 C794,658.587021 795.681356,660 797.767404,660 C799.853451,660 801.625538,658.585485 801.551187,656.832627 L801.513029,655.93299 L801.428148,644.792838 C801.42373,644.213014 801.883205,643.619667 802.464941,643.464758 L811.481006,641.063896 C812.058029,640.910242 812.525799,641.256996 812.525799,641.833168 L812.525799,651.919967 C811.877292,651.479043 811.049572,651.208924 810.150697,651.208924 C808.064649,651.208924 806.383293,652.638063 806.383293,654.392457 C806.383293,656.146851 808.064649,657.55983 810.150697,657.55983 C812.236744,657.55983 813.990209,656.146851 813.990209,654.392457 C813.990209,654.376064 814,640.397865 814,640.397865 L814,635.8056 C814,635.227028 813.532397,634.882742 812.955144,635.036732 L800.990802,638.228382 C800.413744,638.38232 799.944577,638.978263 799.942903,639.554709 Z" id="applemusic"></path>
        </g>
    </g>
</svg>