<?xml version="1.0" encoding="UTF-8" standalone="no"?>
<svg width="48px" height="48px" viewBox="0 0 48 48" version="1.1" xmlns="http://www.w3.org/2000/svg" xmlns:xlink="http://www.w3.org/1999/xlink" xmlns:sketch="http://www.bohemiancoding.com/sketch/ns">
    <!-- Generator: Sketch 3.5.1 (25234) - http://www.bohemiancoding.com/sketch -->
    <title>facebook :hover</title>
    <desc>Created with Sketch.</desc>
    <defs></defs>
    <g id="Icons" stroke="none" stroke-width="1" fill="none" fill-rule="evenodd" sketch:type="MSPage">
        <g id="Black" sketch:type="MSArtboardGroup" transform="translate(-140.000000, -500.000000)">
            <g id="facebook-:hover" sketch:type="MSLayerGroup" transform="translate(140.000000, 500.000000)">
                <path d="M0,24 C0,10.7451653 10.7451653,0 24,0 C37.2548347,0 48,10.7451653 48,24 C48,37.2548347 37.2548347,48 24,48 C10.7451653,48 0,37.2548347 0,24 Z" id="Facebook" fill="#000000" sketch:type="MSShapeGroup"></path>
                <path d="M18,19.6059722 L20.3565548,19.6059722 L20.3565548,17.29575 C20.3565548,16.2760833 20.3818873,14.7044167 21.1152628,13.73075 C21.888537,12.7002222 22.949335,12 24.7745408,12 C27.7479417,12 29,12.4274167 29,12.4274167 L28.4103863,15.9508889 C28.4103863,15.9508889 27.4287524,15.6633889 26.5123496,15.6633889 C25.5953135,15.6633889 24.7745408,15.9949722 24.7745408,16.9194444 L24.7745408,19.6059722 L28.5332489,19.6059722 L28.2710576,23.0470278 L24.7745408,23.0470278 L24.7745408,35 L20.3565548,35 L20.3565548,23.0470278 L18,23.0470278 L18,19.6059722" id="Fill-3" fill="#FFFFFF" sketch:type="MSShapeGroup"></path>
            </g>
        </g>
    </g>
</svg>