<?xml version="1.0" encoding="UTF-8" standalone="no"?>
<svg width="32px" height="21px" viewBox="0 0 32 21" version="1.1" xmlns="http://www.w3.org/2000/svg" xmlns:xlink="http://www.w3.org/1999/xlink" xmlns:sketch="http://www.bohemiancoding.com/sketch/ns">
    <!-- Generator: Sketch 3.4.4 (17249) - http://www.bohemiancoding.com/sketch -->
    <title>rewind</title>
    <desc>Created with Sketch.</desc>
    <defs></defs>
    <g id="Page-2" stroke="none" stroke-width="1" fill="none" fill-rule="evenodd" sketch:type="MSPage">
        <g id="Desktop-HD-Copy-10" sketch:type="MSArtboardGroup" transform="translate(-140.000000, -744.000000)" fill="#000000">
            <g id="player-controls" sketch:type="MSLayerGroup" transform="translate(140.000000, 738.000000)">
                <path d="M15.5,17.893867 L1.72586068,25.9786879 C0.774533488,26.5370756 -8.52651283e-14,26.0986975 -8.52651283e-14,24.9971317 L-8.52651283e-14,7.98625457 C-8.52651283e-14,6.89403687 0.765520026,6.46099018 1.70983683,7.03989744 L15.5,15.493867 L15.5,7.98625457 C15.5,6.89403687 16.26552,6.45786055 17.2098368,7.03290721 L31.2901632,15.6071956 C32.2367941,16.1836515 32.2273059,17.1051066 31.2741393,17.6684707 L17.2258607,25.9716322 C16.2745335,26.5339092 15.5,26.0986975 15.5,24.9971317 L15.5,17.893867 Z" id="rewind" sketch:type="MSShapeGroup" transform="translate(15.997304, 16.500000) scale(-1, 1) translate(-15.997304, -16.500000) "></path>
            </g>
        </g>
    </g>
</svg>