<?xml version="1.0" encoding="UTF-8"?>
<svg width="50px" height="50px" viewBox="0 0 50 50" version="1.1" xmlns="http://www.w3.org/2000/svg" xmlns:xlink="http://www.w3.org/1999/xlink">
    <!-- Generator: Sketch 41.2 (35397) - http://www.bohemiancoding.com/sketch -->
    <title>spotify-stroke</title>
    <desc>Created with Sketch.</desc>
    <defs></defs>
    <g id="Page-1" stroke="none" stroke-width="1" fill="none" fill-rule="evenodd">
        <g id="Desktop-HD" transform="translate(-709.000000, -716.000000)">
            <g id="spotify-stroke" transform="translate(710.000000, 717.000000)">
                <g id="Group" transform="translate(10.000000, 14.000000)" fill="#FFFFFF">
                    <path d="M26.7085714,8.19 C20.1257143,4.2 9.12,3.78 2.84571429,5.775 C1.81714286,6.09 0.788571429,5.46 0.48,4.515 C0.171428571,3.465 0.788571429,2.415 1.71428571,2.1 C9.01714286,-0.105 21.0514286,0.315 28.6628571,4.935 C29.5885714,5.46 29.8971429,6.72 29.3828571,7.665 C28.8685714,8.4 27.6342857,8.715 26.7085714,8.19" id="Spotify-path"></path>
                    <path d="M26.5028571,14.07 C25.9885714,14.805 25.0628571,15.12 24.3428571,14.595 C18.7885714,11.13 10.3542857,10.08 3.87428571,12.18 C3.05142857,12.39 2.12571429,11.97 1.92,11.13 C1.71428571,10.29 2.12571429,9.345 2.94857143,9.135 C10.4571429,6.825 19.7142857,7.98 26.0914286,11.97 C26.7085714,12.285 27.0171429,13.335 26.5028571,14.07" id="Spotify-path"></path>
                    <path d="M24.0342857,19.845 C23.6228571,20.475 22.9028571,20.685 22.2857143,20.265 C17.4514286,17.22 11.3828571,16.59 4.18285714,18.27 C3.46285714,18.48 2.84571429,17.955 2.64,17.325 C2.43428571,16.59 2.94857143,15.96 3.56571429,15.75 C11.3828571,13.965 18.1714286,14.7 23.52,18.06 C24.24,18.375 24.3428571,19.215 24.0342857,19.845" id="Spotify-path"></path>
                </g>
                <path d="M24,0 C10.8,0 0,10.8 0,24 C0,37.2 10.8,48 24,48 C37.2,48 48,37.2 48,24 C48,10.8 37.32,0 24,0" id="Spotify-path" stroke="#FFFFFF" stroke-width="2"></path>
            </g>
        </g>
    </g>
</svg>