<?xml version="1.0" encoding="UTF-8"?>
<svg width="48px" height="48px" viewBox="0 0 48 48" version="1.1" xmlns="http://www.w3.org/2000/svg" xmlns:xlink="http://www.w3.org/1999/xlink">
    <!-- Generator: Sketch 41.2 (35397) - http://www.bohemiancoding.com/sketch -->
    <title>Spotify</title>
    <desc>Created with Sketch.</desc>
    <defs></defs>
    <g id="Page-1" stroke="none" stroke-width="1" fill="none" fill-rule="evenodd">
        <g id="Desktop-HD" transform="translate(-782.000000, -551.000000)" fill="#FFFFFF">
            <path d="M820.16,572.36 C812.48,567.8 799.64,567.32 792.32,569.6 C791.12,569.96 789.92,569.24 789.56,568.16 C789.2,566.96 789.92,565.76 791,565.4 C799.52,562.88 813.56,563.36 822.44,568.64 C823.52,569.24 823.88,570.68 823.28,571.76 C822.68,572.6 821.24,572.96 820.16,572.36 M819.92,579.08 C819.32,579.92 818.24,580.28 817.4,579.68 C810.92,575.72 801.08,574.52 793.52,576.92 C792.56,577.16 791.48,576.68 791.24,575.72 C791,574.76 791.48,573.68 792.44,573.44 C801.2,570.8 812,572.12 819.44,576.68 C820.16,577.04 820.52,578.24 819.92,579.08 M817.04,585.68 C816.56,586.4 815.72,586.64 815,586.16 C809.36,582.68 802.28,581.96 793.88,583.88 C793.04,584.12 792.32,583.52 792.08,582.8 C791.84,581.96 792.44,581.24 793.16,581 C802.28,578.96 810.2,579.8 816.44,583.64 C817.28,584 817.4,584.96 817.04,585.68 M806,551 C792.8,551 782,561.8 782,575 C782,588.2 792.8,599 806,599 C819.2,599 830,588.2 830,575 C830,561.8 819.32,551 806,551" id="Spotify"></path>
        </g>
    </g>
</svg>